# xmcd CD database file
#
# Track frame offsets:
#	150
#	17479
#	35952
#	51739
#	67342
#	82811
#	100238
#	118454
#	135097
#	151041
#	168718
#
# Disc length: 2538 seconds
#
# Revision: 0
# Processed by: cddbd v1.5.1PL2 Copyright (c) Steve Scherf et al.
# Submitted via: CDex 1.60beta1-cs1
#
DISCID=9709e80b
DTITLE=Julie Roberts - Men and Mascara
DYEAR=2006
DGENRE=Country
TTITLE0=Paint And Pillows  
TTITLE1=Smile
TTITLE2=Too Damn Young  
TTITLE3=Men and Mascara 
TTITLE4=First To Never Know
TTITLE5=Chasin' Whiskey  
TTITLE6=A Bridge That's Burning  
TTITLE7=Lonely Alone  
TTITLE8=That Ain't A Crime  
TTITLE9=Mama Don't Cry  
TTITLE10=All I Want  
EXTD=YEAR: 2006
EXTT0=
EXTT1=
EXTT2=
EXTT3=
EXTT4=
EXTT5=
EXTT6=
EXTT7=
EXTT8=
EXTT9=
EXTT10=
PLAYORDER=
